<?xml version="1.0" encoding="UTF-8" standalone="no"?>
<svg width="192px" height="46px" viewBox="0 0 192 46" version="1.1" xmlns="http://www.w3.org/2000/svg" xmlns:xlink="http://www.w3.org/1999/xlink">
    <!-- Generator: Sketch 3.6.1 (26313) - http://www.bohemiancoding.com/sketch -->
    <title>Combined Shape</title>
    <desc>Created with Sketch.</desc>
    <defs></defs>
    <g id="Logo" stroke="none" stroke-width="1" fill="none" fill-rule="evenodd">
        <g id="dark-text---white-bg" transform="translate(-145.000000, -126.000000)" fill="#242424">
            <g id="Group" transform="translate(145.000000, 126.000000)">
                <path d="M30.6497603,28.7732444 L48.4945006,28.7732444 C49.5951715,28.7732444 50.4874415,27.8784018 50.4874415,26.7789691 L50.4874415,25.4924562 C50.4874415,24.3910483 49.5987391,23.4981808 48.4855,23.4981808 L36.6178763,23.4981808 L36.6178763,17.1259041 L48.1901471,17.1259041 C49.296424,17.1259041 50.1932386,16.2310615 50.1932386,15.1316287 L50.1932386,13.8451159 C50.1932386,12.743708 49.3025212,11.8508405 48.1901471,11.8508405 L36.6178763,11.8508405 L36.6178763,5.90056886 L48.4855,5.90056886 C49.5911418,5.90056886 50.4874415,5.00572623 50.4874415,3.90629352 L50.4874415,2.61978066 C50.4874415,1.5183728 49.583509,0.625505313 48.4945006,0.625505313 L30.6497603,0.625505313 L30.6497603,28.7732444 Z M62.8259508,26.4940697 C62.8259508,27.5995132 63.7127684,28.4956522 64.827242,28.4956522 L66.8348045,28.4956522 C67.9400871,28.4956522 68.8360957,27.6026605 68.8360957,26.4940697 L68.8360957,5.71594203 L74.9951183,5.71594203 C76.0967058,5.71594203 76.9897189,4.82473647 76.9897189,3.71478539 L76.9897189,2.46347548 C76.9897189,1.35826719 76.0855101,0.462318841 74.9857921,0.462318841 L56.6342255,0.462318841 C55.5274873,0.462318841 54.6302986,1.3535244 54.6302986,2.46347548 L54.6302986,3.71478539 C54.6302986,4.81999368 55.5229785,5.71594203 56.6351807,5.71594203 L62.8259508,5.71594203 L62.8259508,26.4940697 Z M102.507146,25.9660502 C104.075768,24.7223576 104.978065,23.5892583 104.978065,23.5892583 C105.712534,22.7707657 105.506761,21.7197917 104.514575,21.2399641 L102.973766,20.4948185 C101.983318,20.0158317 100.952855,20.3283603 100.152858,21.0964505 C100.152858,21.0964505 102.110519,19.6275368 98.9136654,22.1072464 C98.5388275,22.6933002 96.2796668,23.7043478 94.5818514,23.7043478 C89.4963442,23.7043478 85.7977935,19.7956522 85.7977935,14.5 C85.7977935,9.20434783 89.4963442,5.29565217 94.5818514,5.29565217 C97.4818514,5.29565217 99.742456,7.98085894 99.742456,7.98085894 C100.536612,8.74942106 101.98158,8.97844203 102.973766,8.49048179 L103.624033,8.17067822 C105.106313,7.44168799 105.415578,5.85457046 104.226765,4.68311255 C104.226765,4.68311255 100.760112,0 94.5818514,0 C86.1760543,0 79.6615616,5.88405797 79.6615616,14.5 C79.6615616,23.115942 86.1760543,29 94.5818514,29 C97.912997,29 100.671846,27.4211794 102.507146,25.9660502 Z M130.288477,26.4993517 C130.288477,27.601878 131.175294,28.4956522 132.289768,28.4956522 L134.29733,28.4956522 C135.402613,28.4956522 136.298622,27.5946834 136.298622,26.5020373 L136.298622,2.45593368 C136.298622,1.35489061 135.411804,0.462318841 134.29733,0.462318841 L132.289768,0.462318841 C131.184485,0.462318841 130.288477,1.36344381 130.288477,2.45643548 L130.288477,11.473913 L117.049346,11.473913 L117.049346,2.45643548 C117.049346,1.35511527 116.155859,0.462318841 115.045447,0.462318841 L113.085129,0.462318841 C111.978406,0.462318841 111.08123,1.36328766 111.08123,2.45593368 L111.08123,26.5020373 C111.08123,27.6030804 111.974718,28.4956522 113.085129,28.4956522 L115.045447,28.4956522 C116.15217,28.4956522 117.049346,27.5917682 117.049346,26.4993517 L117.049346,16.7275362 L130.288477,16.7275362 L130.288477,26.4993517 Z M143.005247,26.5020373 C143.005247,27.6030804 143.909179,28.4956522 144.998188,28.4956522 L160.849987,28.4956522 C161.950658,28.4956522 162.842928,27.6044466 162.842928,26.4944955 L162.842928,25.2431856 C162.842928,24.1379773 161.954226,23.242029 160.840987,23.242029 L148.973363,23.242029 L148.973363,16.8956522 L160.545634,16.8956522 C161.651911,16.8956522 162.548725,16.0044466 162.548725,14.8944955 L162.548725,13.6431856 C162.548725,12.5379773 161.658008,11.642029 160.545634,11.642029 L148.973363,11.642029 L148.973363,5.71594203 L160.840987,5.71594203 C161.946628,5.71594203 162.842928,4.82473647 162.842928,3.71478539 L162.842928,2.46347548 C162.842928,1.35826719 161.938996,0.462318841 160.849987,0.462318841 L144.998188,0.462318841 C143.897517,0.462318841 143.005247,1.36328766 143.005247,2.45593368 L143.005247,26.5020373 Z M184.074929,27.6291153 C184.339458,28.1076904 185.003396,28.4956522 185.550055,28.4956522 L188.399798,28.4956522 C190.059319,28.4956522 190.717949,27.3328794 189.878519,25.9114447 L185.100278,17.8202899 C188.126365,17.1057971 191.23651,14.457971 191.23651,9.49855072 C191.23651,4.28695652 187.664046,0.462318841 181.822017,0.462318841 L171.717371,0.462318841 C170.055879,0.462318841 168.708974,1.81442478 168.708974,3.46237657 L168.708974,26.5020373 C168.708974,27.6030804 169.602461,28.4956522 170.712872,28.4956522 L172.673191,28.4956522 C173.779913,28.4956522 174.67709,27.5941233 174.67709,26.5038618 L174.67709,18.5347826 L179.048104,18.5347826 L184.074929,27.6291153 Z M27.211514,22.5181913 L30.6497603,22.5181913 L30.6497603,25.6457178 L27.211514,25.6457178 L27.8346726,25.6457178 C28.6948189,25.6457178 29.3987497,24.9455972 29.3987497,24.0819545 C29.3987497,23.2122908 28.6984886,22.5181913 27.8346726,22.5181913 L27.211514,22.5181913 Z M19.0784622,16.2631381 L30.6497603,16.2631381 L30.6497603,19.3906647 L19.0784622,19.3906647 L19.7031036,19.3906647 C20.5632498,19.3906647 21.2671806,18.690544 21.2671806,17.8269014 C21.2671806,16.9572376 20.5669195,16.2631381 19.7031036,16.2631381 L19.0784622,16.2631381 Z M24.7093455,10.008085 L30.6497603,10.008085 L30.6497603,13.1356116 L24.7093455,13.1356116 L25.3326514,13.1356116 C26.1927976,13.1356116 26.8967285,12.4354909 26.8967285,11.5718483 C26.8967285,10.7021845 26.1964673,10.008085 25.3326514,10.008085 L24.7093455,10.008085 Z M22.2079115,3.75303188 L30.6497603,3.75303188 L30.6497603,6.88055844 L22.2079115,6.88055844 L22.8306301,6.88055844 C23.6907764,6.88055844 24.3947072,6.18043777 24.3947072,5.31679516 C24.3947072,4.44713139 23.694446,3.75303188 22.8306301,3.75303188 L22.2079115,3.75303188 Z M185.142307,9.49855072 C185.142307,11.8521739 183.335061,13.2811594 180.939408,13.2811594 L174.67709,13.2811594 L174.67709,5.71594203 L180.939408,5.71594203 C183.335061,5.71594203 185.142307,7.14492754 185.142307,9.49855072 Z M11.2590956,2.1892686 C11.2590956,1.32562598 11.9492197,0.625505313 12.8131371,0.625505313 L30.6497603,0.625505313 L30.6497603,3.75303188 L12.8131371,3.75303188 C11.9548637,3.75303188 11.2590956,3.05893237 11.2590956,2.1892686 Z M13.1356116,8.44432172 C13.1356116,7.58067911 13.8438789,6.88055844 14.6898754,6.88055844 L30.6497603,6.88055844 L30.6497603,10.008085 L14.6898754,10.008085 C13.8314792,10.008085 13.1356116,9.3139855 13.1356116,8.44432172 Z M8.75707438,14.6993749 C8.75707438,13.8357322 9.46068773,13.1356116 10.3139917,13.1356116 L30.6497603,13.1356116 L30.6497603,16.2631381 L10.3139917,16.2631381 C9.45413003,16.2631381 8.75707438,15.5690386 8.75707438,14.6993749 Z M10.6335903,20.954428 C10.6335903,20.0907854 11.3342399,19.3906647 12.2042256,19.3906647 L30.6497603,19.3906647 L30.6497603,22.5181913 L12.2042256,22.5181913 C11.3367877,22.5181913 10.6335903,21.8240918 10.6335903,20.954428 Z M19.3906647,27.2094811 C19.3906647,26.3458385 20.0949716,25.6457178 20.9561937,25.6457178 L30.6497603,25.6457178 L30.6497603,28.7732444 L20.9561937,28.7732444 C20.0915759,28.7732444 19.3906647,28.0791449 19.3906647,27.2094811 Z M0.876515939,1.97181745 C0.876515939,1.10817483 1.57834111,0.408054165 2.44210534,0.408054165 L8.06800092,0.408054165 C8.93265207,0.408054165 9.63359032,1.10215368 9.63359032,1.97181745 C9.63359032,2.83546006 8.93176515,3.53558073 8.06800092,3.53558073 L2.44210534,3.53558073 C1.57745419,3.53558073 0.876515939,2.84148122 0.876515939,1.97181745 Z M0,14.4819237 C0,13.6182811 0.693299418,12.9181604 1.56227877,12.9181604 L4.69277436,12.9181604 C5.5555971,12.9181604 6.25505313,13.6122599 6.25505313,14.4819237 C6.25505313,15.3455663 5.56175371,16.045687 4.69277436,16.045687 L1.56227877,16.045687 C0.699456028,16.045687 0,15.3515875 0,14.4819237 Z M8.75707438,8.22687058 C8.75707438,7.36322796 9.45117389,6.66310729 10.3208377,6.66310729 C11.1844803,6.66310729 11.8846009,7.35720681 11.8846009,8.22687058 C11.8846009,9.09051319 11.1905014,9.79063386 10.3208377,9.79063386 C9.45719505,9.79063386 8.75707438,9.09653435 8.75707438,8.22687058 Z M114,45.78 L117.62,45.78 C118.89,45.78 119.56,44.98 119.56,43.98 C119.56,43.14 118.99,42.45 118.28,42.34 C118.91,42.21 119.43,41.65 119.43,40.81 C119.43,39.92 118.78,39.11 117.51,39.11 L114,39.11 L114,45.78 Z M115.42,41.78 L115.42,40.33 L117.2,40.33 C117.68,40.33 117.98,40.64 117.98,41.06 C117.98,41.48 117.68,41.78 117.2,41.78 L115.42,41.78 Z M115.42,44.55 L115.42,43 L117.25,43 C117.81,43 118.11,43.36 118.11,43.78 C118.11,44.26 117.79,44.55 117.25,44.55 L115.42,44.55 Z M124.29,45.78 L125.71,45.78 L125.71,43.05 L128.26,39.11 L126.64,39.11 L125,41.79 L123.34,39.11 L121.72,39.11 L124.29,43.05 L124.29,45.78 Z M139.41,45.78 L141.04,45.78 L139.54,43.24 C140.26,43.07 141,42.44 141,41.26 C141,40.02 140.15,39.11 138.76,39.11 L135.64,39.11 L135.64,45.78 L137.06,45.78 L137.06,43.41 L138.1,43.41 L139.41,45.78 Z M139.55,41.26 C139.55,41.82 139.12,42.16 138.55,42.16 L137.06,42.16 L137.06,40.36 L138.55,40.36 C139.12,40.36 139.55,40.7 139.55,41.26 Z M144.17,45.78 L148.89,45.78 L148.89,44.53 L145.59,44.53 L145.59,43.02 L148.82,43.02 L148.82,41.77 L145.59,41.77 L145.59,40.36 L148.89,40.36 L148.89,39.11 L144.17,39.11 L144.17,45.78 Z M151.65,44.84 C152.27,45.47 153.19,45.9 154.47,45.9 C156.27,45.9 157.14,44.98 157.14,43.76 C157.14,42.25 155.74,41.92 154.64,41.66 C153.92,41.49 153.31,41.35 153.31,40.92 C153.31,40.52 153.65,40.25 154.26,40.25 C154.94,40.25 155.66,40.48 156.2,40.98 L156.99,39.94 C156.33,39.33 155.45,39.01 154.39,39.01 C152.82,39.01 151.86,39.93 151.86,41.04 C151.86,42.56 153.26,42.86 154.35,43.11 C155.08,43.29 155.7,43.43 155.7,43.92 C155.7,44.3 155.32,44.66 154.54,44.66 C153.62,44.66 152.89,44.25 152.42,43.76 L151.65,44.84 Z M160.199999,45.78 L161.619999,45.78 L161.619999,39.11 L160.199999,39.11 L160.199999,45.78 Z M169.639999,45.78 L171.009999,45.78 L171.009999,39.11 L169.589999,39.11 L169.589999,43.3 L166.499999,39.11 L165.039999,39.11 L165.039999,45.78 L166.459999,45.78 L166.459999,41.43 L169.639999,45.78 Z M174.239999,45.08 C174.239999,45.52 174.609999,45.89 175.049999,45.89 C175.489999,45.89 175.859999,45.52 175.859999,45.08 C175.859999,44.64 175.489999,44.27 175.049999,44.27 C174.609999,44.27 174.239999,44.64 174.239999,45.08 Z M179.089999,45.78 L180.509999,45.78 L180.509999,39.11 L179.089999,39.11 L179.089999,45.78 Z M183.609999,42.45 C183.609999,44.46 185.079999,45.9 187.089999,45.9 C189.109999,45.9 190.579999,44.46 190.579999,42.45 C190.579999,40.44 189.109999,39 187.089999,39 C185.079999,39 183.609999,40.44 183.609999,42.45 Z M189.119999,42.45 C189.119999,43.69 188.319999,44.64 187.089999,44.64 C185.859999,44.64 185.069999,43.69 185.069999,42.45 C185.069999,41.2 185.859999,40.26 187.089999,40.26 C188.319999,40.26 189.119999,41.2 189.119999,42.45 Z" id="Combined-Shape"></path>
            </g>
        </g>
    </g>
</svg>